<svg version="1.1" id="Layer_1" xmlns="http://www.w3.org/2000/svg" xmlns:xlink="http://www.w3.org/1999/xlink" x="0px" y="0px"
	 width="100%" viewBox="0 0 428 450" enable-background="new 0 0 428 450" xml:space="preserve">
<path fill="#FFFFFF" opacity="1.000000" stroke="none" 
	d="
M429.000000,156.000000 
	C429.000000,254.290344 429.000000,352.580688 429.000000,450.935516 
	C286.438721,450.935516 143.877380,450.935516 1.000000,450.935516 
	C1.000000,361.311554 1.000000,271.622772 1.346674,181.644104 
	C6.424030,195.916321 11.154713,210.478424 15.943897,225.397064 
	C16.723793,227.501343 17.445185,229.249069 18.215454,231.344147 
	C20.238169,235.789124 22.212006,239.886765 24.225925,244.328110 
	C28.154976,251.456253 32.043941,258.240692 35.980404,265.379883 
	C41.668091,274.162628 47.308273,282.590698 52.995243,291.367432 
	C58.701500,298.809082 64.360977,305.901978 70.157059,313.300903 
	C71.739845,315.410065 73.298218,317.135590 74.609756,319.031830 
	C77.726746,323.538330 81.069542,324.100433 86.201210,321.566193 
	C98.184250,315.648407 110.565155,310.540802 122.734535,304.994507 
	C133.526077,300.076141 144.249664,295.008667 155.367172,289.965668 
	C175.449997,280.958679 195.156418,271.965485 214.891708,263.036102 
	C230.854156,255.813751 246.893661,248.760300 262.813965,241.446823 
	C269.974976,238.157196 276.928680,234.416336 284.334045,230.837402 
	C289.324554,228.625183 293.957458,226.455795 298.919006,224.219925 
	C300.220795,224.435944 301.193909,224.718460 302.088135,225.376007 
	C297.636627,237.818756 293.264038,249.886459 288.583405,262.159149 
	C286.365936,267.885162 284.479431,273.414276 282.542358,278.925568 
	C278.669830,289.943604 274.769531,300.951904 270.574951,312.156372 
	C264.885254,327.086609 259.501373,341.824738 254.117477,356.562897 
	C254.488800,356.874847 254.860123,357.186829 255.231445,357.498810 
	C267.855469,345.349365 280.479492,333.199921 293.404541,320.911804 
	C306.486572,307.550903 319.267639,294.328644 332.355835,280.958435 
	C339.450012,273.360138 346.313232,265.977234 352.988770,258.428375 
	C355.895386,255.141510 358.416870,251.514069 361.414246,247.900055 
	C367.180725,241.187653 372.646301,234.616531 378.414185,227.901855 
	C382.826874,222.541229 386.937225,217.324188 391.356445,211.953644 
	C396.148590,205.547119 400.631836,199.294067 405.420380,192.892609 
	C410.500641,185.531372 415.275635,178.318527 420.351044,170.923981 
	C423.434296,165.828186 426.217133,160.914093 429.000000,156.000000 
M220.188431,422.351440 
	C222.495956,415.913055 224.803482,409.474701 227.697678,402.605408 
	C230.500580,394.415039 233.303482,386.224640 236.693283,377.623901 
	C239.491287,369.755310 242.289291,361.886719 245.660721,353.578857 
	C247.456635,348.076935 249.252548,342.574982 251.623505,336.634583 
	C253.094818,332.442810 254.566132,328.251038 256.626617,323.591797 
	C258.514832,317.381958 260.403046,311.172150 262.750214,304.482391 
	C263.549896,302.897827 264.525024,301.376129 265.119171,299.717896 
	C267.817780,292.186676 270.409058,284.616974 273.607483,276.608917 
	C277.459381,265.970917 281.348938,255.346176 285.105164,244.674469 
	C285.483154,243.600510 285.053894,242.242401 284.379242,241.038696 
	C283.893311,241.347397 283.407410,241.656097 282.993988,241.977280 
	C282.993988,241.977280 282.964325,241.909943 282.235931,242.019897 
	C273.862671,245.824127 265.501862,249.656158 257.113190,253.426041 
	C244.531876,259.080017 231.888092,264.596863 219.350449,270.345642 
	C206.833466,276.084930 194.414459,282.037933 181.219147,288.014679 
	C143.176590,305.192505 105.134018,322.370331 66.528160,339.802490 
	C67.626495,340.477020 67.985138,340.879669 68.371582,340.908417 
	C86.976952,342.292114 105.579697,343.717987 124.194000,344.971893 
	C136.238281,345.783173 148.305786,346.247650 160.351227,347.044006 
	C166.584518,347.456085 172.792419,348.252533 179.015671,349.705902 
	C180.403061,354.474335 181.790451,359.242737 183.139694,364.771606 
	C184.747253,369.534058 186.354828,374.296509 188.006165,379.848419 
	C188.991165,382.922363 189.976151,385.996307 190.997635,389.836243 
	C191.382751,391.558319 191.767868,393.280396 192.324234,395.705292 
	C193.182526,398.144379 194.040833,400.583496 194.997238,403.799622 
	C196.057831,407.201660 197.118423,410.603699 198.117020,414.767822 
	C199.380951,418.525818 200.644867,422.283844 201.991547,426.824249 
	C202.960648,429.898499 203.929764,432.972748 204.987717,436.839111 
	C206.221603,441.072723 207.455505,445.306366 208.689392,449.539978 
	C209.318420,449.553101 209.947449,449.566193 210.576462,449.579285 
	C213.663391,440.721710 216.750320,431.864166 220.188431,422.351440 
z"/>
<path fill="#FFFFFF" opacity="1.000000" stroke="none" 
	d="
M1.000000,174.000000 
	C1.000000,116.390717 1.000000,58.781429 1.000000,1.000000 
	C89.687485,1.000000 178.375092,1.000000 267.393036,1.315029 
	C263.131104,5.719059 258.538849,9.808059 253.638947,14.046513 
	C249.450043,17.492392 245.534821,20.749840 241.694550,24.093376 
	C233.758789,31.002642 225.862946,37.957760 217.602234,44.949356 
	C206.485458,53.301556 195.717117,61.598415 184.641998,70.047974 
	C175.853485,76.451561 167.371765,82.702454 158.579956,89.099358 
	C151.496384,93.795761 144.722900,98.346153 137.635742,103.047989 
	C130.513641,107.781769 123.705215,112.364113 116.542130,116.982155 
	C107.442047,122.310135 98.696625,127.602425 89.594467,132.950653 
	C86.816353,134.339996 84.409393,135.700439 81.971024,137.002029 
	C72.618073,141.994598 63.255035,146.968292 53.534912,151.985153 
	C37.365738,158.336639 21.544228,164.619507 5.771102,171.021561 
	C4.318421,171.611176 3.174254,172.960876 1.664501,173.955170 
	C1.442169,173.952713 1.000000,174.000000 1.000000,174.000000 
z"/>
<path fill="#EFBF40" opacity="1.000000" stroke="none" 
	d="
M184.948792,69.895271 
	C195.717117,61.598415 206.485458,53.301556 217.805084,45.244583 
	C221.517014,46.934902 224.641037,48.472122 227.844040,49.821983 
	C252.597931,60.254227 277.341248,70.712448 302.153717,81.003876 
	C306.995636,83.012146 312.124298,84.329094 317.409363,86.139130 
	C317.991364,86.887451 318.200073,87.527985 318.590820,88.025520 
	C323.463837,94.229950 330.002533,94.527481 337.007629,93.527252 
	C338.726593,95.230232 340.248383,97.001083 342.175903,97.843002 
	C354.479950,103.217300 366.831329,108.489273 379.248016,113.598213 
	C394.401886,119.833382 409.635315,125.875130 424.917236,132.395264 
	C426.333435,137.526672 427.666718,142.263336 429.000000,147.000000 
	C429.000000,149.700012 429.000000,152.400024 429.000000,155.550018 
	C426.217133,160.914093 423.434296,165.828186 420.147858,170.628952 
	C417.534912,169.565903 415.443237,168.574402 413.313477,167.672943 
	C390.715179,158.107758 368.115265,148.546387 345.506927,139.005005 
	C323.204193,129.592606 300.887268,120.213715 278.583771,110.803093 
	C253.378723,100.168213 228.150238,89.587753 203.003601,78.816353 
	C196.842072,76.177094 190.959579,72.886444 184.948792,69.895271 
z"/>
<path fill="#E7AA3A" opacity="1.000000" stroke="none" 
	d="
M1.000000,174.437500 
	C1.000000,174.000000 1.442169,173.952713 2.051325,173.972122 
	C3.309678,174.112030 4.007500,174.117874 4.601068,174.369568 
	C29.164772,184.785156 53.700359,195.267242 78.278893,205.647614 
	C118.425766,222.603012 158.613052,239.462952 198.718567,256.515320 
	C200.486633,257.267090 201.612869,259.528412 202.801178,261.346558 
	C196.046326,264.106720 189.528351,266.606873 182.667053,269.215240 
	C170.881683,273.872314 159.439621,278.421143 147.992905,282.596832 
	C146.597549,280.788483 145.466278,278.779541 143.772888,278.013855 
	C134.719345,273.920319 125.536362,270.111298 116.378029,266.251617 
	C89.213593,254.803436 62.062935,243.321945 34.852032,231.985153 
	C28.643112,229.398346 22.213457,227.341354 15.885397,225.040512 
	C11.154713,210.478424 6.424030,195.916321 1.346674,181.177124 
	C1.000000,178.958328 1.000000,176.916672 1.000000,174.437500 
z"/>
<path fill="#F2C842" opacity="1.000000" stroke="none" 
	d="
M253.946564,13.897057 
	C258.538849,9.808059 263.131104,5.719059 267.861694,1.315029 
	C273.022095,1.000000 278.044189,1.000000 283.758850,1.362771 
	C290.538086,2.150339 296.623413,2.594988 302.711639,2.995527 
	C313.240753,3.688227 323.778625,4.261377 334.300262,5.051573 
	C350.874969,6.296368 367.427612,7.860986 384.012878,8.928706 
	C392.541626,9.477769 398.288727,14.215488 400.022217,22.673410 
	C402.054993,32.591663 404.471863,42.430614 406.652740,52.319252 
	C408.759338,61.870907 410.777710,71.442017 412.465820,80.996140 
	C406.295715,78.613312 400.510406,76.199570 394.689697,73.874367 
	C387.196106,70.880882 379.674194,67.958359 372.218506,64.657166 
	C373.307678,62.255772 374.527100,60.272888 375.343262,58.135990 
	C377.785065,51.742939 379.379028,45.190170 375.832367,38.715931 
	C372.591003,32.799030 363.862915,30.403912 355.964600,32.468937 
	C346.266266,35.004601 338.853699,41.251163 330.751099,46.991806 
	C314.112793,39.971336 297.832123,33.021053 281.578522,26.008080 
	C272.345001,22.024067 263.155762,17.937460 253.946564,13.897057 
z"/>
<path fill="#FFFFFF" opacity="1.000000" stroke="none" 
	d="
M412.834839,81.004578 
	C410.777710,71.442017 408.759338,61.870907 406.652740,52.319252 
	C404.471863,42.430614 402.054993,32.591663 400.022217,22.673410 
	C398.288727,14.215488 392.541626,9.477769 384.012878,8.928706 
	C367.427612,7.860986 350.874969,6.296368 334.300262,5.051573 
	C323.778625,4.261377 313.240753,3.688227 302.711639,2.995527 
	C296.623413,2.594988 290.538086,2.150339 284.225708,1.362771 
	C332.260590,1.000000 380.521149,1.000000 429.000000,1.000000 
	C429.000000,49.354008 429.000000,97.708344 429.000000,146.531342 
	C427.666718,142.263336 426.333435,137.526672 424.964020,131.996841 
	C423.282501,124.078613 421.696289,116.939247 419.977203,109.832016 
	C417.649811,100.209953 415.220459,90.612556 412.834839,81.004578 
z"/>
<path fill="#EBB53D" opacity="1.000000" stroke="none" 
	d="
M89.951187,132.894714 
	C98.696625,127.602425 107.442047,122.310135 116.873650,117.127853 
	C128.552124,121.910988 139.544952,126.582893 150.536621,131.257507 
	C171.453445,140.153152 192.354889,149.085159 213.290070,157.937408 
	C235.598618,167.370377 257.942932,176.718735 280.264038,186.122009 
	C303.196136,195.782715 326.141571,205.412338 349.035461,215.163010 
	C358.787476,219.316498 368.423248,223.742981 378.111847,228.045410 
	C372.646301,234.616531 367.180725,241.187653 361.034760,247.852371 
	C347.790253,242.738220 335.270508,237.419724 322.644196,232.367508 
	C315.913544,229.674362 308.998749,227.441544 302.167053,225.000977 
	C301.193909,224.718460 300.220795,224.435944 298.561829,224.054810 
	C295.030029,222.022278 292.401794,219.588226 289.301483,218.238586 
	C273.471649,211.347504 257.521942,204.731583 241.610306,198.028549 
	C219.273621,188.618851 196.928955,179.228073 174.596207,169.809082 
	C151.804779,160.196609 128.996857,150.622375 106.257164,140.888901 
	C100.699486,138.510010 95.380119,135.574387 89.951187,132.894714 
z"/>
<path fill="#EEBC3F" opacity="1.000000" stroke="none" 
	d="
M184.641998,70.047974 
	C190.959579,72.886444 196.842072,76.177094 203.003601,78.816353 
	C228.150238,89.587753 253.378723,100.168213 278.583771,110.803093 
	C300.887268,120.213715 323.204193,129.592606 345.506927,139.005005 
	C368.115265,148.546387 390.715179,158.107758 413.313477,167.672943 
	C415.443237,168.574402 417.534912,169.565903 419.847443,170.810638 
	C415.275635,178.318527 410.500641,185.531372 405.031677,192.875885 
	C398.359924,190.575775 392.355408,188.207642 386.409302,185.700882 
	C363.789307,176.164780 341.195465,166.566559 318.577820,157.024902 
	C298.558838,148.579498 278.511749,140.200745 258.494202,131.751923 
	C235.877960,122.206238 213.257324,112.670326 190.685837,103.019684 
	C180.030396,98.463844 169.485199,93.650192 158.890045,88.953354 
	C167.371765,82.702454 175.853485,76.451561 184.641998,70.047974 
z"/>
<path fill="#EAB33C" opacity="1.000000" stroke="none" 
	d="
M89.594460,132.950653 
	C95.380119,135.574387 100.699486,138.510010 106.257164,140.888901 
	C128.996857,150.622375 151.804779,160.196609 174.596207,169.809082 
	C196.928955,179.228073 219.273621,188.618851 241.610306,198.028549 
	C257.521942,204.731583 273.471649,211.347504 289.301483,218.238586 
	C292.401794,219.588226 295.030029,222.022278 298.233185,224.121292 
	C293.957458,226.455795 289.324554,228.625183 284.114410,230.594147 
	C280.560638,231.318726 277.547943,232.142532 274.615021,233.189606 
	C268.391815,235.411316 262.210144,237.749298 255.970810,239.682266 
	C253.228180,237.576340 250.711349,235.394531 247.794785,234.148010 
	C225.363068,224.560913 202.847549,215.170090 180.370316,205.689224 
	C157.739136,196.143433 135.109360,186.594116 112.502708,176.990448 
	C92.949760,168.684021 73.430130,160.299194 53.895767,151.949036 
	C63.255035,146.968292 72.618073,141.994598 81.971024,137.002029 
	C84.409393,135.700439 86.816353,134.339996 89.594460,132.950653 
z"/>
<path fill="#EDBA3E" opacity="1.000000" stroke="none" 
	d="
M158.579956,89.099365 
	C169.485199,93.650192 180.030396,98.463844 190.685837,103.019684 
	C213.257324,112.670326 235.877960,122.206238 258.494202,131.751923 
	C278.511749,140.200745 298.558838,148.579498 318.577820,157.024902 
	C341.195465,166.566559 363.789307,176.164780 386.409302,185.700882 
	C392.355408,188.207642 398.359924,190.575775 404.726379,193.024292 
	C400.631836,199.294067 396.148590,205.547119 391.198120,211.632065 
	C389.323700,210.642868 387.984772,209.662247 386.498352,209.026611 
	C376.895447,204.920303 367.256836,200.897644 357.636536,196.831879 
	C334.883911,187.216125 312.138458,177.583405 289.383575,167.972992 
	C267.086395,158.555893 244.779755,149.161209 222.479828,139.750580 
	C199.722641,130.147018 176.941666,120.598961 154.232437,110.883247 
	C148.681778,108.508492 143.370667,105.573799 137.949417,102.896545 
	C144.722900,98.346153 151.496384,93.795761 158.579956,89.099365 
z"/>
<path fill="#ECB73E" opacity="1.000000" stroke="none" 
	d="
M137.635742,103.047981 
	C143.370667,105.573799 148.681778,108.508492 154.232437,110.883247 
	C176.941666,120.598961 199.722641,130.147018 222.479828,139.750580 
	C244.779755,149.161209 267.086395,158.555893 289.383575,167.972992 
	C312.138458,177.583405 334.883911,187.216125 357.636536,196.831879 
	C367.256836,200.897644 376.895447,204.920303 386.498352,209.026611 
	C387.984772,209.662247 389.323700,210.642868 390.889191,211.785553 
	C386.937225,217.324188 382.826874,222.541229 378.414185,227.901855 
	C368.423248,223.742981 358.787476,219.316498 349.035461,215.163010 
	C326.141571,205.412338 303.196136,195.782715 280.264038,186.122009 
	C257.942932,176.718735 235.598618,167.370377 213.290070,157.937408 
	C192.354889,149.085159 171.453445,140.153152 150.536621,131.257507 
	C139.544952,126.582893 128.552124,121.910988 117.228302,117.092163 
	C123.705215,112.364113 130.513641,107.781769 137.635742,103.047981 
z"/>
<path fill="#A19D97" opacity="1.000000" stroke="none" 
	d="
M179.011780,348.875336 
	C172.792419,348.252533 166.584518,347.456085 160.351227,347.044006 
	C148.305786,346.247650 136.238281,345.783173 124.194000,344.971893 
	C105.579697,343.717987 86.976952,342.292114 68.371582,340.908417 
	C67.985138,340.879669 67.626495,340.477020 66.528160,339.802490 
	C105.134018,322.370331 143.176590,305.192505 181.783371,288.248077 
	C191.153900,292.342743 199.956482,296.212494 208.768173,300.061432 
	C212.680084,301.770142 217.063660,302.910370 217.874542,308.332092 
	C205.931412,320.472626 194.116104,332.295258 182.374786,344.190918 
	C181.040939,345.542297 180.122726,347.303925 179.011780,348.875336 
z"/>
<path fill="#E6A739" opacity="1.000000" stroke="none" 
	d="
M15.943899,225.397064 
	C22.213457,227.341354 28.643112,229.398346 34.852032,231.985153 
	C62.062935,243.321945 89.213593,254.803436 116.378029,266.251617 
	C125.536362,270.111298 134.719345,273.920319 143.772888,278.013855 
	C145.466278,278.779541 146.597549,280.788483 147.666718,282.756226 
	C140.876205,285.866943 134.431091,288.507080 127.933479,291.010925 
	C112.317497,297.028625 96.676895,302.982452 80.887421,308.665649 
	C73.821678,302.244171 66.914719,296.119019 59.864067,289.691711 
	C56.609619,285.596100 53.489155,281.810547 50.390598,278.007141 
	C46.585983,273.337036 42.799671,268.652039 39.001617,263.606201 
	C35.331333,256.827393 31.664875,250.415833 27.855200,243.676453 
	C26.763056,240.932938 25.533428,238.584885 24.931154,236.085648 
	C24.033300,232.359863 22.303165,230.200272 18.166580,230.996796 
	C17.445185,229.249069 16.723793,227.501343 15.943899,225.397064 
z"/>
<path fill="#EAB33C" opacity="1.000000" stroke="none" 
	d="
M302.088135,225.376007 
	C308.998749,227.441544 315.913544,229.674362 322.644196,232.367508 
	C335.270508,237.419724 347.790253,242.738220 360.733826,247.993652 
	C358.416870,251.514069 355.895386,255.141510 352.988770,258.428375 
	C346.313232,265.977234 339.450012,273.360138 332.193481,280.634460 
	C331.371094,280.110413 331.080505,279.614044 330.656281,279.435822 
	C316.742584,273.589752 302.816071,267.774200 288.891449,261.954163 
	C293.264038,249.886459 297.636627,237.818756 302.088135,225.376007 
z"/>
<path fill="#C1BEB9" opacity="1.000000" stroke="none" 
	d="
M179.013733,349.290619 
	C180.122726,347.303925 181.040939,345.542297 182.374786,344.190918 
	C194.116104,332.295258 205.931412,320.472626 218.170197,308.179901 
	C239.358215,287.041290 260.112000,266.362274 280.808685,245.626266 
	C281.786682,244.646423 282.257385,243.160294 282.964325,241.909943 
	C282.964325,241.909943 282.993988,241.977280 283.265961,241.980865 
	C284.025055,241.661682 284.512146,241.338913 284.999268,241.016159 
	C285.053894,242.242401 285.483154,243.600510 285.105164,244.674469 
	C281.348938,255.346176 277.459381,265.970917 273.110901,276.561951 
	C270.971130,276.967896 268.859314,276.925903 267.766785,277.960419 
	C263.319611,282.171387 259.145691,286.675507 254.943909,291.140106 
	C248.703796,297.770569 242.726395,304.662170 236.259827,311.061310 
	C230.664200,316.598633 224.228851,321.296783 218.722031,326.912415 
	C208.404724,337.433563 198.505447,348.364044 188.393936,359.088074 
	C186.756546,360.824677 184.921524,362.374847 183.177856,364.011169 
	C181.790451,359.242737 180.403061,354.474335 179.013733,349.290619 
z"/>
<path fill="#E8AD3B" opacity="1.000000" stroke="none" 
	d="
M288.583405,262.159149 
	C302.816071,267.774200 316.742584,273.589752 330.656281,279.435822 
	C331.080505,279.614044 331.371094,280.110413 331.886322,280.782440 
	C319.267639,294.328644 306.486572,307.550903 293.083405,320.757843 
	C285.267761,317.816437 278.074249,314.890350 270.880737,311.964233 
	C274.769531,300.951904 278.669830,289.943604 282.542358,278.925568 
	C284.479431,273.414276 286.365936,267.885162 288.583405,262.159149 
z"/>
<path fill="#A39F99" opacity="1.000000" stroke="none" 
	d="
M282.600128,241.964920 
	C282.257385,243.160294 281.786682,244.646423 280.808685,245.626266 
	C260.112000,266.362274 239.358215,287.041290 218.319931,307.883606 
	C217.063660,302.910370 212.680084,301.770142 208.768173,300.061432 
	C199.956482,296.212494 191.153900,292.342743 182.150040,288.189331 
	C194.414459,282.037933 206.833466,276.084930 219.350449,270.345642 
	C231.888092,264.596863 244.531876,259.080017 257.113190,253.426041 
	C265.501862,249.656158 273.862671,245.824127 282.600128,241.964920 
z"/>
<path fill="#BBB8B3" opacity="1.000000" stroke="none" 
	d="
M183.158783,364.391388 
	C184.921524,362.374847 186.756546,360.824677 188.393936,359.088074 
	C198.505447,348.364044 208.404724,337.433563 218.722031,326.912415 
	C224.228851,321.296783 230.664200,316.598633 236.259827,311.061310 
	C242.726395,304.662170 248.703796,297.770569 254.943909,291.140106 
	C259.145691,286.675507 263.319611,282.171387 267.766785,277.960419 
	C268.859314,276.925903 270.971130,276.967896 272.826660,276.788055 
	C270.409058,284.616974 267.817780,292.186676 265.119171,299.717896 
	C264.525024,301.376129 263.549896,302.897827 262.123474,304.736450 
	C259.345581,306.632355 257.055969,308.124359 255.077240,309.952789 
	C252.405609,312.421539 250.013077,315.189209 247.430908,317.758392 
	C236.986938,328.149811 226.363419,338.365906 216.099731,348.931885 
	C206.527191,358.786346 197.326675,369.002197 187.962402,379.058960 
	C186.354828,374.296509 184.747253,369.534058 183.158783,364.391388 
z"/>
<path fill="#F0C972" opacity="1.000000" stroke="none" 
	d="
M81.046219,308.962036 
	C96.676895,302.982452 112.317497,297.028625 127.933479,291.010925 
	C134.431091,288.507080 140.876205,285.866943 147.671356,283.129395 
	C159.439621,278.421143 170.881683,273.872314 182.657913,269.579865 
	C182.122025,271.130035 181.540970,272.963806 180.326385,273.613861 
	C177.011108,275.388184 173.385712,276.570648 169.961349,278.156403 
	C164.038574,280.899048 157.695816,283.165985 155.003250,290.007050 
	C144.249664,295.008667 133.526077,300.076141 122.734535,304.994507 
	C110.565155,310.540802 98.184250,315.648407 86.201210,321.566193 
	C81.069542,324.100433 77.726746,323.538330 74.609756,319.031830 
	C73.298218,317.135590 71.739845,315.410065 70.536301,313.295410 
	C74.201347,311.643250 77.623779,310.302643 81.046219,308.962036 
z"/>
<path fill="#B6B3AE" opacity="1.000000" stroke="none" 
	d="
M187.984283,379.453674 
	C197.326675,369.002197 206.527191,358.786346 216.099731,348.931885 
	C226.363419,338.365906 236.986938,328.149811 247.430908,317.758392 
	C250.013077,315.189209 252.405609,312.421539 255.077240,309.952789 
	C257.055969,308.124359 259.345581,306.632355 261.893982,304.976440 
	C260.403046,311.172150 258.514832,317.381958 256.120117,323.552917 
	C253.603912,324.315186 251.143906,324.635529 249.673599,326.012634 
	C246.052048,329.404572 242.935654,333.329437 239.526260,336.955475 
	C228.258743,348.939056 216.918808,360.854614 205.674347,372.859650 
	C200.686432,378.184967 195.860565,383.662048 190.961151,389.070251 
	C189.976151,385.996307 188.991165,382.922363 187.984283,379.453674 
z"/>
<path fill="#ADAAA4" opacity="1.000000" stroke="none" 
	d="
M245.087296,354.018127 
	C242.289291,361.886719 239.491287,369.755310 236.021255,377.822662 
	C233.913925,378.702271 232.112411,379.039398 231.100479,380.117584 
	C221.848816,389.975067 212.773941,399.998322 203.540558,409.873260 
	C202.019699,411.499756 199.979294,412.640503 198.179016,414.005737 
	C197.118423,410.603699 196.057831,407.201660 195.303558,403.373962 
	C201.358261,397.062866 207.224808,391.287384 212.828171,385.266907 
	C221.842773,375.581268 230.610931,365.665375 239.686600,356.038513 
	C240.869858,354.783386 243.257492,354.663696 245.087296,354.018127 
z"/>
<path fill="#F2CE77" opacity="1.000000" stroke="none" 
	d="
M155.367172,289.965668 
	C157.695816,283.165985 164.038574,280.899048 169.961349,278.156403 
	C173.385712,276.570648 177.011108,275.388184 180.326385,273.613861 
	C181.540970,272.963806 182.122025,271.130035 183.001221,269.471649 
	C189.528351,266.606873 196.046326,264.106720 203.180115,261.318481 
	C221.201096,254.033478 238.606262,247.036530 256.011444,240.039612 
	C262.210144,237.749298 268.391815,235.411316 274.615021,233.189606 
	C277.547943,232.142532 280.560638,231.318726 283.756836,230.636993 
	C276.928680,234.416336 269.974976,238.157196 262.813965,241.446823 
	C246.893661,248.760300 230.854156,255.813751 214.891708,263.036102 
	C195.156418,271.965485 175.449997,280.958679 155.367172,289.965668 
z"/>
<path fill="#E6A739" opacity="1.000000" stroke="none" 
	d="
M270.574951,312.156372 
	C278.074249,314.890350 285.267761,317.816437 292.782410,320.896515 
	C280.479492,333.199921 267.855469,345.349365 255.231445,357.498810 
	C254.860123,357.186829 254.488800,356.874847 254.117477,356.562897 
	C259.501373,341.824738 264.885254,327.086609 270.574951,312.156372 
z"/>
<path fill="#B1ADA8" opacity="1.000000" stroke="none" 
	d="
M245.374008,353.798492 
	C243.257492,354.663696 240.869858,354.783386 239.686600,356.038513 
	C230.610931,365.665375 221.842773,375.581268 212.828171,385.266907 
	C207.224808,391.287384 201.358261,397.062866 195.254501,402.985474 
	C194.040833,400.583496 193.182526,398.144379 192.570251,395.311646 
	C196.140610,391.515594 199.501297,388.147858 202.781876,384.703766 
	C210.094757,377.026367 217.400635,369.341766 224.647629,361.602295 
	C232.112000,353.630646 239.449326,345.538788 247.010559,337.661072 
	C247.753906,336.886627 249.674393,337.242065 251.048477,337.073059 
	C249.252548,342.574982 247.456635,348.076935 245.374008,353.798492 
z"/>
<path fill="#B4B0AB" opacity="1.000000" stroke="none" 
	d="
M251.335999,336.853821 
	C249.674393,337.242065 247.753906,336.886627 247.010559,337.661072 
	C239.449326,345.538788 232.112000,353.630646 224.647629,361.602295 
	C217.400635,369.341766 210.094757,377.026367 202.781876,384.703766 
	C199.501297,388.147858 196.140610,391.515594 192.484619,394.960236 
	C191.767868,393.280396 191.382751,391.558319 190.979401,389.453247 
	C195.860565,383.662048 200.686432,378.184967 205.674347,372.859650 
	C216.918808,360.854614 228.258743,348.939056 239.526260,336.955475 
	C242.935654,333.329437 246.052048,329.404572 249.673599,326.012634 
	C251.143906,324.635529 253.603912,324.315186 255.825516,323.786621 
	C254.566132,328.251038 253.094818,332.442810 251.335999,336.853821 
z"/>
<path fill="#A9A59F" opacity="1.000000" stroke="none" 
	d="
M198.148010,414.386780 
	C199.979294,412.640503 202.019699,411.499756 203.540558,409.873260 
	C212.773941,399.998322 221.848816,389.975067 231.100479,380.117584 
	C232.112411,379.039398 233.913925,378.702271 235.727814,378.027832 
	C233.303482,386.224640 230.500580,394.415039 227.013458,402.809998 
	C224.483673,403.912384 222.212982,404.395630 220.864792,405.778320 
	C214.409119,412.399231 208.203354,419.263824 201.908783,426.041809 
	C200.644867,422.283844 199.380951,418.525818 198.148010,414.386780 
z"/>
<path fill="#A5A19B" opacity="1.000000" stroke="none" 
	d="
M201.950165,426.433044 
	C208.203354,419.263824 214.409119,412.399231 220.864792,405.778320 
	C222.212982,404.395630 224.483673,403.912384 226.720123,403.025482 
	C224.803482,409.474701 222.495956,415.913055 219.660217,422.682190 
	C217.656128,423.940552 215.966797,424.648895 214.745224,425.837799 
	C211.358871,429.133789 208.167374,432.629944 204.898865,436.046997 
	C203.929764,432.972748 202.960648,429.898499 201.950165,426.433044 
z"/>
<path fill="#EFC46A" opacity="1.000000" stroke="none" 
	d="
M80.887421,308.665649 
	C77.623779,310.302643 74.201347,311.643250 70.399681,312.989380 
	C64.360977,305.901978 58.701500,298.809082 53.402412,291.361847 
	C55.844452,290.669647 57.926105,290.331787 60.007759,289.993896 
	C66.914719,296.119019 73.821678,302.244171 80.887421,308.665649 
z"/>
<path fill="#ECBB5C" opacity="1.000000" stroke="none" 
	d="
M59.864067,289.691711 
	C57.926105,290.331787 55.844452,290.669647 53.355629,291.013123 
	C47.308273,282.590698 41.668091,274.162628 36.327538,265.370483 
	C37.419922,264.662079 38.212677,264.317780 39.005440,263.973480 
	C42.799671,268.652039 46.585983,273.337036 50.390598,278.007141 
	C53.489155,281.810547 56.609619,285.596100 59.864067,289.691711 
z"/>
<path fill="#A19D97" opacity="1.000000" stroke="none" 
	d="
M204.943298,436.443054 
	C208.167374,432.629944 211.358871,429.133789 214.745224,425.837799 
	C215.966797,424.648895 217.656128,423.940552 219.484619,423.009766 
	C216.750320,431.864166 213.663391,440.721710 210.576462,449.579285 
	C209.947449,449.566193 209.318420,449.553101 208.689392,449.539978 
	C207.455505,445.306366 206.221603,441.072723 204.943298,436.443054 
z"/>
<path fill="#E9B049" opacity="1.000000" stroke="none" 
	d="
M39.001614,263.606201 
	C38.212677,264.317780 37.419922,264.662079 36.280037,265.015747 
	C32.043941,258.240692 28.154976,251.456253 24.606918,244.332382 
	C25.964691,243.996719 26.981554,244.000488 27.998417,244.004272 
	C31.664875,250.415833 35.331333,256.827393 39.001614,263.606201 
z"/>
<path fill="#E7AA3A" opacity="1.000000" stroke="none" 
	d="
M27.855202,243.676453 
	C26.981554,244.000488 25.964691,243.996719 24.566833,243.988678 
	C22.212006,239.886765 20.238169,235.789124 18.215458,231.344147 
	C22.303165,230.200272 24.033300,232.359863 24.931154,236.085648 
	C25.533428,238.584885 26.763056,240.932938 27.855202,243.676453 
z"/>
<path fill="#A39F99" opacity="1.000000" stroke="none" 
	d="
M284.689270,241.027435 
	C284.512146,241.338913 284.025055,241.661682 283.229706,241.974625 
	C283.407410,241.656097 283.893311,241.347397 284.689270,241.027435 
z"/>
<path fill="#E9AF3B" opacity="1.000000" stroke="none" 
	d="
M255.970810,239.682251 
	C238.606262,247.036530 221.201096,254.033478 203.416992,261.058472 
	C201.612869,259.528412 200.486633,257.267090 198.718567,256.515320 
	C158.613052,239.462952 118.425766,222.603012 78.278893,205.647614 
	C53.700359,195.267242 29.164772,184.785156 4.601068,174.369568 
	C4.007500,174.117874 3.309678,174.112030 2.273657,173.974579 
	C3.174254,172.960876 4.318421,171.611176 5.771102,171.021561 
	C21.544228,164.619507 37.365738,158.336639 53.534912,151.985168 
	C73.430130,160.299194 92.949760,168.684021 112.502708,176.990448 
	C135.109360,186.594116 157.739136,196.143433 180.370316,205.689224 
	C202.847549,215.170090 225.363068,224.560913 247.794785,234.148010 
	C250.711349,235.394531 253.228180,237.576340 255.970810,239.682251 
z"/>
<path fill="#F0C341" opacity="1.000000" stroke="none" 
	d="
M253.638947,14.046511 
	C263.155762,17.937460 272.345001,22.024067 281.578522,26.008080 
	C297.832123,33.021053 314.112793,39.971336 330.595703,47.298027 
	C327.782074,51.697819 324.443604,55.554993 321.794800,59.838593 
	C316.837372,67.855537 314.004639,76.423332 317.120697,85.964897 
	C312.124298,84.329094 306.995636,83.012146 302.153717,81.003876 
	C277.341248,70.712448 252.597931,60.254227 227.844040,49.821983 
	C224.641037,48.472122 221.517014,46.934902 218.153534,45.189243 
	C225.862946,37.957760 233.758789,31.002642 241.694550,24.093376 
	C245.534821,20.749840 249.450043,17.492392 253.638947,14.046511 
z"/>
<path fill="#F0C341" opacity="1.000000" stroke="none" 
	d="
M412.465820,80.996140 
	C415.220459,90.612556 417.649811,100.209953 419.977203,109.832016 
	C421.696289,116.939247 423.282501,124.078613 424.881104,131.602112 
	C409.635315,125.875130 394.401886,119.833382 379.248016,113.598213 
	C366.831329,108.489273 354.479950,103.217300 342.175903,97.843002 
	C340.248383,97.001083 338.726593,95.230232 337.379089,93.447105 
	C339.854431,92.152954 342.002075,91.375931 344.075775,90.435837 
	C356.149902,84.962158 364.955170,75.861259 372.164459,65.005272 
	C379.674194,67.958359 387.196106,70.880882 394.689697,73.874367 
	C400.510406,76.199570 406.295715,78.613312 412.465820,80.996140 
z"/>
<path fill="#FFFFFF" opacity="1.000000" stroke="none" 
	d="
M372.218506,64.657166 
	C364.955170,75.861259 356.149902,84.962158 344.075775,90.435837 
	C342.002075,91.375931 339.854431,92.152954 337.369507,93.085449 
	C330.002533,94.527481 323.463837,94.229950 318.590820,88.025520 
	C318.200073,87.527985 317.991364,86.887451 317.409363,86.139130 
	C314.004639,76.423332 316.837372,67.855537 321.794800,59.838593 
	C324.443604,55.554993 327.782074,51.697819 330.964661,47.341969 
	C338.853699,41.251163 346.266266,35.004601 355.964600,32.468937 
	C363.862915,30.403912 372.591003,32.799030 375.832367,38.715931 
	C379.379028,45.190170 377.785065,51.742939 375.343262,58.135990 
	C374.527100,60.272888 373.307678,62.255772 372.218506,64.657166 
z"/>
</svg>